<svg width="58" height="58" viewBox="0 0 58 58" fill="none" xmlns="http://www.w3.org/2000/svg">
<path d="M53.9918 53.7917C53.45 54.3341 52.8066 54.7643 52.0985 55.0579C51.3903 55.3514 50.6313 55.5025 49.8647 55.5025C49.0981 55.5025 48.339 55.3514 47.6309 55.0579C46.9227 54.7643 46.2793 54.3341 45.7376 53.7917L30.5418 38.5959C26.5275 40.6381 21.9236 41.2059 17.5334 40.2C13.6425 39.2935 10.1374 37.1809 7.51851 34.1639C4.8996 31.147 3.30071 27.3797 2.95009 23.4C2.62382 19.9155 3.2806 16.4093 4.84592 13.2792L17.5334 26.0834L24.8251 24.625L26.2834 17.3334L13.4793 4.73335C16.6007 3.1379 20.1073 2.45073 23.6001 2.75002C27.5798 3.10064 31.347 4.69953 34.364 7.31844C37.381 9.93736 39.4936 13.4424 40.4001 17.3334C41.3778 21.6865 40.8107 26.2442 38.7959 30.225L53.9918 45.4209C54.5518 45.9646 54.9971 46.6152 55.3011 47.3341C55.6052 48.053 55.7618 48.8257 55.7618 49.6063C55.7618 50.3869 55.6052 51.1595 55.3011 51.8784C54.9971 52.5974 54.5518 53.248 53.9918 53.7917V53.7917Z" stroke="#2C7250" stroke-width="4" stroke-linecap="round" stroke-linejoin="round"/>
</svg>
